<svg version="1.1" xmlns="http://www.w3.org/2000/svg" xmlns:xlink="http://www.w3.org/1999/xlink" width="320" height="233"><defs><clipPath id="CDVZAAqRrsmU"><path fill="none" stroke="none" d=" M 0 0 L 320 0 L 320 233 L 0 233 L 0 0 Z"/></clipPath></defs><g transform="scale(1,1)" clip-path="url(#CDVZAAqRrsmU)"><g><rect fill="rgb(255,255,255)" stroke="none" x="0" y="0" width="320" height="233" fill-opacity="1"/><path fill="none" stroke="rgb(255,0,0)" paint-order="fill stroke markers" d=" M 21.50813970268885 121.51537802397952 L 22.5 120.52353973323636 M 22.5 120.52353973323636 L 25 118.02447787345555 M 25 118.02447787345555 L 27.5 115.52836817953308 L 30 113.03732154770904 M 30 113.03732154770904 L 32.5 110.55344459252125 L 35 108.07883786529497 L 37.5 105.6155940777604 L 40 103.16579633229972 M 40 103.16579633229972 L 42.5 100.73151636032064 L 45 98.31481277024601 L 47.5 95.91772930660125 L 50 93.54229312167175 L 52.5 91.190513061192 L 54.999999999999986 88.86437796551601 L 57.5 86.56585498770576 L 60 84.29688792996015 L 62.5 82.05939559979106 L 65 79.85527018733683 L 67.5 77.68637566518535 L 70 75.55454621206016 L 72.5 73.46158466170209 L 75 71.40926097825906 L 77.5 69.39931075947237 L 80 67.43343376892614 M 80 67.43343376892614 L 82.5 65.5132924986006 L 85 63.640510762945055 L 87.49999999999999 61.816672325659475 L 90 60.04331956034595 L 92.5 58.32195214616275 L 95 56.654025799583934 L 97.5 55.040951043337074 L 100 53.48409201356023 L 102.5 51.98476530618679 L 104.99999999999999 50.54423886353395 L 107.5 49.16373090203629 L 109.99999999999999 47.8444088820312 L 112.5 46.58738852046744 L 114.99999999999999 45.39373284737189 L 117.5 44.26445130687213 L 119.99999999999999 43.20049890353535 L 122.5 42.202775394745345 L 124.99999999999999 41.272124529800664 L 127.49999999999997 40.40933333637743 L 130 39.61513145496005 L 132.5 38.89019052180288 L 135 38.23512360094472 L 137.5 37.65048466575604 L 140 37.13676813045794 L 142.5 36.69440843200867 L 145 36.32377966271136 L 147.5 36.02519525385368 L 150 35.79890771064707 L 152.5 35.6451083986895 L 155 35.563927382132434 L 157.49999999999997 35.555433313688965 L 160 35.61963337657589 M 160 35.61963337657589 L 162.49999999999997 35.75647327843913 L 165 35.96583729726733 L 167.49999999999997 36.24754837925501 L 170 36.60136828853251 L 172.49999999999997 37.0269978086359 L 175 37.524076995546736 L 177.49999999999997 38.092185482087544 L 180 38.73084283341561 L 182.49999999999997 39.439508953314444 L 185 40.21758454093934 L 187.49999999999997 41.064411597630865 L 189.99999999999997 41.979273983367435 L 192.49999999999997 42.961398022386774 L 195 44.0099531574636 L 197.5 45.12405265229076 L 199.99999999999997 46.30275434136951 L 202.5 47.54506142677478 L 205 48.84992332112165 L 207.5 50.216236536020446 L 209.99999999999997 51.6428456152686 L 212.49999999999997 53.128544111990436 L 215 54.67207560889861 L 217.5 56.272134780813914 L 219.99999999999997 57.92736849854572 L 222.49999999999997 59.6363769731986 L 224.99999999999997 61.39771493993813 L 227.5 63.20989288021449 L 229.99999999999997 65.07137828141012 L 232.49999999999997 66.98059693284674 L 235 68.935934257055 L 237.5 70.93573667518135 L 239.99999999999997 72.97831300537766 M 239.99999999999997 72.97831300537766 L 242.49999999999997 75.06193589299033 L 244.99999999999997 77.1848432713402 L 247.5 79.34523985185723 L 249.99999999999997 81.54129864231018 L 252.49999999999997 83.77116249184742 L 255 86.03294566154196 L 257.5 88.32473541911256 L 260 90.64459365647281 L 262.5 92.99055852873957 L 265 95.360646113315 L 267.5 97.75285208763947 L 270 100.16515342419564 L 272.5 102.59551010133157 L 275 105.04186682845472 L 277.5 107.50215478413867 L 280 109.9742933656728 M 280 109.9742933656728 L 282.5 112.45619194857473 L 284.99999999999994 114.94575165457807 L 287.5 117.44086712660032 L 290 119.93942830918935 M 290 119.93942830918935 L 291.5760380016412 121.51537802397948" stroke-opacity="0.8" stroke-linecap="round" stroke-linejoin="round" stroke-miterlimit="10" stroke-width="2.5"/><path fill="none" stroke="rgb(255,0,0)" paint-order="fill stroke markers" d=" M 21.50813970268885 121.51537974328518 L 22.5 122.50721803402834 M 22.5 122.50721803402834 L 25 125.00627989380915 M 25 125.00627989380915 L 27.5 127.50238958773163 L 30 129.99343621955566 M 30 129.99343621955566 L 32.5 132.47731317474344 L 35 134.95191990196972 L 37.5 137.4151636895043 L 40 139.86496143496498 M 40 139.86496143496498 L 42.5 142.29924140694405 L 45 144.71594499701868 L 47.5 147.11302846066346 L 50 149.48846464559296 L 52.5 151.8402447060727 L 54.999999999999986 154.1663798017487 L 57.5 156.46490277955894 L 60 158.73386983730455 L 62.5 160.97136216747364 L 65 163.17548757992788 L 67.5 165.34438210207935 L 70 167.47621155520454 L 72.5 169.5691731055626 L 75 171.62149678900565 L 77.5 173.63144700779233 L 80 175.59732399833857 M 80 175.59732399833857 L 82.5 177.5174652686641 L 85 179.39024700431963 L 87.49999999999999 181.21408544160522 L 90 182.98743820691874 L 92.5 184.70880562110196 L 95 186.37673196768077 L 97.5 187.98980672392764 L 100 189.54666575370447 L 102.5 191.0459924610779 L 104.99999999999999 192.48651890373077 L 107.5 193.8670268652284 L 109.99999999999999 195.18634888523349 L 112.5 196.44336924679726 L 114.99999999999999 197.6370249198928 L 117.5 198.76630646039257 L 119.99999999999999 199.83025886372934 L 122.5 200.82798237251936 L 124.99999999999999 201.75863323746404 L 127.49999999999997 202.62142443088726 L 130 203.41562631230465 L 132.5 204.14056724546182 L 135 204.79563416631999 L 137.5 205.38027310150866 L 140 205.89398963680677 L 142.5 206.33634933525605 L 145 206.70697810455334 L 147.5 207.005562513411 L 150 207.23185005661765 L 152.5 207.3856493685752 L 155 207.46683038513225 L 157.49999999999997 207.47532445357575 L 160 207.41112439068883 M 160 207.41112439068883 L 162.49999999999997 207.27428448882557 L 165 207.0649204699974 L 167.49999999999997 206.7832093880097 L 170 206.4293894787322 L 172.49999999999997 206.0037599586288 L 175 205.50668077171798 L 177.49999999999997 204.93857228517714 L 180 204.2999149338491 L 182.49999999999997 203.59124881395024 L 185 202.81317322632538 L 187.49999999999997 201.96634616963382 L 189.99999999999997 201.05148378389725 L 192.49999999999997 200.06935974487794 L 195 199.0208046098011 L 197.5 197.90670511497393 L 199.99999999999997 196.7280034258952 L 202.5 195.48569634048994 L 205 194.18083444614305 L 207.5 192.81452123124427 L 209.99999999999997 191.3879121519961 L 212.49999999999997 189.90221365527427 L 215 188.3586821583661 L 217.5 186.7586229864508 L 219.99999999999997 185.10338926871898 L 222.49999999999997 183.3943807940661 L 224.99999999999997 181.63304282732656 L 227.5 179.82086488705022 L 229.99999999999997 177.95937948585458 L 232.49999999999997 176.05016083441797 L 235 174.09482351020972 L 237.5 172.09502109208336 L 239.99999999999997 170.05244476188705 M 239.99999999999997 170.05244476188705 L 242.49999999999997 167.96882187427437 L 244.99999999999997 165.8459144959245 L 247.5 163.68551791540747 L 249.99999999999997 161.48945912495452 L 252.49999999999997 159.25959527541727 L 255 156.99781210572274 L 257.5 154.70602234815215 L 260 152.3861641107919 L 262.5 150.04019923852513 L 265 147.6701116539497 L 267.5 145.27790567962523 L 270 142.86560434306907 L 272.5 140.43524766593313 L 275 137.98889093881 L 277.5 135.52860298312604 L 280 133.0564644015919 M 280 133.0564644015919 L 282.5 130.57456581869 L 284.99999999999994 128.0850061126866 L 287.5 125.58989064066438 L 290 123.09132945807535 M 290 123.09132945807535 L 291.5760380016412 121.51537974328522" stroke-opacity="0.8" stroke-linecap="round" stroke-linejoin="round" stroke-miterlimit="10" stroke-width="2.5"/><path fill="none" stroke="rgb(0,0,255)" paint-order="fill stroke markers" d=" M 21.50813970268885 121.51537802397952 L 22.5 120.52371577523398 M 22.5 120.52371577523398 L 25 118.03215334646346 M 25 118.03215334646346 L 27.5 115.5670870474681 L 30 113.14726809486183 M 30 113.14726809486183 L 32.5 110.79110351865647 L 35 108.51651614403707 L 37.5 106.3408082563767 L 40 104.280529986561 M 40 104.280529986561 L 42.5 102.35135341778626 L 45 100.56795337147304 L 47.5 98.94389577913046 L 50 97.49153448930207 L 52.5 96.22191729455972 L 54.999999999999986 95.14470189337791 L 57.5 94.2680824261478 L 60 93.59872714415522 L 62.5 93.14172768566134 L 65 92.90056034493145 L 67.5 92.87705962882973 L 70 93.07140430212951 L 72.5 93.482116027689 L 75 94.10607061183644 L 77.5 94.93852176942346 L 80 95.97313722777135 M 80 95.97313722777135 L 82.5 97.20204689487504 L 85 98.61590272546042 L 87.49999999999999 100.20394982950648 L 90 101.9541082823259 L 92.5 103.85306501389263 L 95 105.88637507843438 L 97.5 108.03857153395487 L 100 110.29328309585638 L 102.5 112.63335866969723 L 104.99999999999999 115.04099781579107 L 107.5 117.4978861532327 L 109.99999999999999 119.98533467336115 L 112.5 122.48442190293423 L 114.99999999999999 124.9761378356093 L 117.5 127.44152853687639 L 119.99999999999999 129.86184032246493 L 122.5 132.2186624134911 L 124.99999999999999 134.49406698319936 L 127.49999999999997 136.67074552999352 L 130 138.73214053939765 L 132.5 140.66257143342324 L 135 142.44735384927372 L 137.5 144.07291134005922 L 140 145.526878647839 L 142.5 146.79819576341623 L 145 147.87719205739285 L 147.5 148.75565984251838 L 150 149.42691680775962 L 152.5 149.88585684916967 L 155 150.1289889108962 L 157.49999999999997 150.15446354087499 L 160 149.9620869592044 M 160 149.9620869592044 L 162.49999999999997 149.55332253218657 L 165 148.93127964082194 L 167.49999999999997 148.10069002843278 L 170 147.06787180733335 L 172.49999999999997 145.8406813983406 L 175 144.42845376871077 L 177.49999999999997 142.84193142309863 L 180 141.09318268768982 L 182.49999999999997 139.19550990910045 L 185 137.16334826635514 L 187.49999999999997 135.0121559656584 L 189.99999999999997 132.7582966532233 L 192.49999999999997 130.41891494061753 L 195 128.0118059894777 L 197.5 125.5552801476328 L 199.99999999999997 123.0680236663195 L 202.5 120.56895655798309 L 205 118.07708867590837 L 207.5 115.61137511045096 L 209.99999999999997 113.19057200183823 L 212.49999999999997 110.83309386634005 L 215 108.5568735210978 L 217.5 106.37922567313261 L 219.99999999999997 104.31671521018102 L 222.49999999999997 102.38503119524106 L 224.99999999999997 100.59886752332417 L 227.5 98.97181114823104 L 229.99999999999997 97.51623872958533 L 232.49999999999997 96.24322248630888 L 235 95.16244597269 L 237.5 94.2821304177181 L 239.99999999999997 93.60897218800474 M 239.99999999999997 93.60897218800474 L 242.49999999999997 93.14809184999714 L 244.99999999999997 92.90299521895659 L 247.5 92.87554669099357 L 249.99999999999997 93.06595506101709 L 252.49999999999997 93.47277193447773 L 255 94.09290274498612 L 257.5 94.92163029399812 L 260 95.9526506335056 L 262.5 97.17812101878104 L 265 98.58871956640998 L 267.5 100.1737161638057 L 270 101.92105409081334 L 272.5 103.81744173252571 L 275 105.84845368567149 L 277.5 107.99864048948174 L 280 110.25164614633687 M 280 110.25164614633687 L 282.5 112.59033253823935 L 284.99999999999994 114.99690979270393 L 287.5 117.45307160640128 L 290 119.94013449717657 M 290 119.94013449717657 L 291.5760380016412 121.5153780239795" stroke-opacity="0.8" stroke-linecap="round" stroke-linejoin="round" stroke-miterlimit="10" stroke-width="2.5"/><path fill="none" stroke="rgb(0,0,255)" paint-order="fill stroke markers" d=" M 21.50813970268885 121.51537974328518 L 22.5 122.50704199203072 M 22.5 122.50704199203072 L 25 124.99860442080124 M 25 124.99860442080124 L 27.5 127.4636707197966 L 30 129.88348967240287 M 30 129.88348967240287 L 32.5 132.23965424860825 L 35 134.51424162322763 L 37.5 136.689949510888 L 40 138.7502277807037 M 40 138.7502277807037 L 42.5 140.67940434947843 L 45 142.46280439579166 L 47.5 144.08686198813425 L 50 145.53922327796263 L 52.5 146.808840472705 L 54.999999999999986 147.8860558738868 L 57.5 148.7626753411169 L 60 149.43203062310948 L 62.5 149.88903008160335 L 65 150.13019742233325 L 67.5 150.15369813843498 L 70 149.9593534651352 L 72.5 149.5486417395757 L 75 148.92468715542827 L 77.5 148.09223599784124 L 80 147.05762053949337 M 80 147.05762053949337 L 82.5 145.82871087238965 L 85 144.4148550418043 L 87.49999999999999 142.82680793775822 L 90 141.0766494849388 L 92.5 139.17769275337207 L 95 137.14438268883032 L 97.5 134.99218623330984 L 100 132.7374746714083 L 102.5 130.39739909756747 L 104.99999999999999 127.98975995147363 L 107.5 125.532871614032 L 109.99999999999999 123.04542309390355 L 112.5 120.54633586433047 L 114.99999999999999 118.05461993165541 L 117.5 115.58922923038831 L 119.99999999999999 113.16891744479976 L 122.5 110.81209535377359 L 124.99999999999999 108.53669078406533 L 127.49999999999997 106.36001223727118 L 130 104.29861722786706 L 132.5 102.36818633384145 L 135 100.58340391799099 L 137.5 98.95784642720548 L 140 97.5038791194257 L 142.5 96.23256200384847 L 145 95.15356570987184 L 147.5 94.27509792474632 L 150 93.60384095950506 L 152.5 93.14490091809505 L 155 92.90176885636852 L 157.49999999999997 92.87629422638973 L 160 93.06867080806029 M 160 93.06867080806029 L 162.49999999999997 93.47743523507813 L 165 94.09947812644276 L 167.49999999999997 94.93006773883192 L 170 95.96288595993136 L 172.49999999999997 97.19007636892411 L 175 98.60230399855394 L 177.49999999999997 100.18882634416607 L 180 101.93757507957488 L 182.49999999999997 103.83524785816425 L 185 105.86740950090957 L 187.49999999999997 108.01860180160631 L 189.99999999999997 110.27246111404139 L 192.49999999999997 112.61184282664718 L 195 115.01895177778702 L 197.5 117.4754776196319 L 199.99999999999997 119.9627341009452 L 202.5 122.46180120928162 L 205 124.95366909135633 L 207.5 127.41938265681374 L 209.99999999999997 129.84018576542647 L 212.49999999999997 132.19766390092465 L 215 134.4738842461669 L 217.5 136.6515320941321 L 219.99999999999997 138.71404255708367 L 222.49999999999997 140.64572657202365 L 224.99999999999997 142.43189024394053 L 227.5 144.05894661903366 L 229.99999999999997 145.51451903767938 L 232.49999999999997 146.78753528095584 L 235 147.8683117945747 L 237.5 148.7486273495466 L 239.99999999999997 149.42178557925996 M 239.99999999999997 149.42178557925996 L 242.49999999999997 149.88266591726756 L 244.99999999999997 150.1277625483081 L 247.5 150.15521107627112 L 249.99999999999997 149.9648027062476 L 252.49999999999997 149.55798583278698 L 255 148.9378550222786 L 257.5 148.10912747326657 L 260 147.0781071337591 L 262.5 145.85263674848366 L 265 144.44203820085474 L 267.5 142.857041603459 L 270 141.10970367645137 L 272.5 139.213316034739 L 275 137.18230408159323 L 277.5 135.03211727778296 L 280 132.77911162092784 M 280 132.77911162092784 L 282.5 130.44042522902535 L 284.99999999999994 128.03384797456076 L 287.5 125.57768616086342 L 290 123.09062327008813 M 290 123.09062327008813 L 291.5760380016412 121.51537974328521" stroke-opacity="0.8" stroke-linecap="round" stroke-linejoin="round" stroke-miterlimit="10" stroke-width="2.5"/></g></g></svg>