<svg version="1.1" xmlns="http://www.w3.org/2000/svg" xmlns:xlink="http://www.w3.org/1999/xlink" width="297" height="285"><defs><clipPath id="KgvCkohJhTVi"><path fill="none" stroke="none" d=" M 0 0 L 297 0 L 297 285 L 0 285 L 0 0 Z"/></clipPath></defs><g transform="scale(1,1)" clip-path="url(#KgvCkohJhTVi)"><g><rect fill="rgb(255,255,255)" stroke="none" x="0" y="0" width="298" height="286" fill-opacity="1"/><path fill="none" stroke="rgb(255,0,0)" paint-order="fill stroke markers" d=" M 18.289533407976055 144.32613196287414 L 18.5625 144.05316588135722 M 18.5625 144.05316588135722 L 20.8828125 141.73329059022737 L 23.203125 139.4155174337431 L 25.5234375 137.1017255356228 L 27.84375 134.79379079179841 L 30.1640625 132.49358434954144 L 32.484375 130.20297109043915 L 34.8046875 127.92380811845052 L 37.125 125.657943254268 M 37.125 125.657943254268 L 39.4453125 123.40721353720545 L 41.765625 121.17344373582718 L 44.0859375 118.95844486852536 L 46.40625 116.76401273524544 L 48.7265625 114.59192646154963 L 51.046875 112.4439470561993 L 53.3671875 110.32181598342537 L 55.68750000000001 108.22725375104424 L 58.0078125 106.16195851556435 L 60.328125 104.12760470541355 L 62.6484375 102.12584166340423 L 64.96875 100.1582923095363 L 67.2890625 98.22655182522247 L 69.609375 96.33218636000237 L 71.9296875 94.47673176179413 L 74.25 92.66169233171291 M 74.25 92.66169233171291 L 76.5703125 90.88853960446585 L 78.890625 89.15871115531212 L 81.2109375 87.47360943455563 L 83.53125 85.83460063051493 L 85.8515625 84.2430135618925 L 88.171875 82.70013860044119 L 90.49218750000001 81.20722662480136 L 92.8125 79.76548800635692 L 95.1328125 78.37609162793237 L 97.453125 77.04016393612656 L 99.7734375 75.75878802805138 L 102.09375 74.53300277321588 L 104.4140625 73.36380197126762 L 106.734375 72.25213354627432 L 109.05468750000001 71.1988987781989 L 111.37500000000001 70.20495157219088 L 113.69531250000001 69.27109776628686 L 116.015625 68.39809447808108 L 118.3359375 67.5866494908959 L 120.65625 66.83742067994974 L 122.9765625 66.15101547898794 L 125.296875 65.52799038780857 L 127.6171875 64.96885052108289 L 129.9375 64.47404919883603 L 132.2578125 64.04398757891984 L 134.578125 63.679014331776074 L 136.8984375 63.379425357753504 L 139.21875 63.145463547207996 L 141.5390625 62.97731858358041 L 143.859375 62.875126789611556 L 146.1796875 62.838971016819215 L 148.5 62.86888057832664 M 148.5 62.86888057832664 L 150.8203125 62.9648312250971 L 153.140625 63.12674516559362 L 155.46093750000003 63.354491128848196 L 157.78125000000003 63.647884470889 L 160.1015625 64.00668732443972 L 162.421875 64.4306087917693 L 164.7421875 64.91930518053589 L 167.0625 65.47238028243382 L 169.3828125 66.08938569441762 L 171.703125 66.7698211822427 L 174.0234375 67.51313508602792 L 176.34375000000003 68.3187247675112 L 178.66406250000003 69.18593709863576 L 180.98437500000003 70.11406899107054 L 183.30468750000003 71.1023679662358 L 185.62500000000003 72.15003276537162 L 187.94531250000003 73.25621399915468 L 190.26562500000003 74.4200148363366 L 192.58593750000003 75.6404917308458 L 194.90625000000003 76.91665518676292 L 197.22656250000003 78.24747056055008 L 199.54687500000003 79.63185889988327 L 201.86718750000003 81.0686978184078 L 204.18750000000003 82.55682240570795 L 206.5078125 84.09502617175241 L 208.828125 85.68206202505066 L 211.1484375 87.31664328372628 L 213.46875 88.99744471868847 L 215.78906250000003 90.7231036280552 L 218.10937500000003 92.49222094195741 L 220.42968750000003 94.30336235682834 L 222.75000000000003 96.15505949825842 M 222.75000000000003 96.15505949825842 L 225.07031250000003 98.045811111473 L 227.39062500000003 99.97408427846744 L 229.71093750000003 101.93831566081343 L 232.03125000000003 103.93691276712808 L 234.35156250000003 105.96825524417902 L 236.67187500000003 108.03069619057804 L 238.99218750000003 110.12256349199876 L 241.3125 112.2421611768354 L 243.6328125 114.38777079120395 L 245.953125 116.55765279217042 L 248.2734375 118.75004795807722 L 250.59375 120.96317881482386 L 252.9140625 123.19525107694574 L 255.23437500000003 125.44445510232265 L 257.5546875 127.70896735933765 L 259.875 129.9869519052968 M 259.875 129.9869519052968 L 262.1953125 132.27656187491104 L 264.515625 134.57594097763365 L 266.8359375 136.88322500263902 L 269.15625 139.19654333022282 M 269.15625 139.19654333022282 L 271.4765625 141.51402044839827 L 273.796875 143.83377747345858 M 273.796875 143.83377747345858 L 274.2892324852139 144.3261319628741" stroke-opacity="0.8" stroke-linecap="round" stroke-linejoin="round" stroke-miterlimit="10" stroke-width="6.5"/><path fill="none" stroke="rgb(255,0,0)" paint-order="fill stroke markers" d=" M 18.289533407976055 144.32613359261885 L 18.5625 144.59909967413577 M 18.5625 144.59909967413577 L 20.8828125 146.91897496526562 L 23.203125 149.23674812174988 L 25.5234375 151.5505400198702 L 27.84375 153.85847476369457 L 30.1640625 156.15868120595155 L 32.484375 158.44929446505384 L 34.8046875 160.72845743704247 L 37.125 162.994322301225 M 37.125 162.994322301225 L 39.4453125 165.24505201828754 L 41.765625 167.4788218196658 L 44.0859375 169.69382068696763 L 46.40625 171.88825282024754 L 48.7265625 174.06033909394336 L 51.046875 176.20831849929368 L 53.3671875 178.3304495720676 L 55.68750000000001 180.42501180444873 L 58.0078125 182.49030703992864 L 60.328125 184.52466085007944 L 62.6484375 186.52642389208876 L 64.96875 188.49397324595668 L 67.2890625 190.4257137302705 L 69.609375 192.32007919549062 L 71.9296875 194.17553379369886 L 74.25 195.99057322378007 M 74.25 195.99057322378007 L 76.5703125 197.76372595102714 L 78.890625 199.49355440018087 L 81.2109375 201.17865612093738 L 83.53125 202.81766492497806 L 85.8515625 204.4092519936005 L 88.171875 205.9521269550518 L 90.49218750000001 207.44503893069162 L 92.8125 208.88677754913607 L 95.1328125 210.27617392756062 L 97.453125 211.61210161936643 L 99.7734375 212.8934775274416 L 102.09375 214.1192627822771 L 104.4140625 215.28846358422538 L 106.734375 216.40013200921868 L 109.05468750000001 217.4533667772941 L 111.37500000000001 218.4473139833021 L 113.69531250000001 219.38116778920613 L 116.015625 220.2541710774119 L 118.3359375 221.0656160645971 L 120.65625 221.81484487554326 L 122.9765625 222.50125007650504 L 125.296875 223.1242751676844 L 127.6171875 223.6834150344101 L 129.9375 224.17821635665695 L 132.2578125 224.60827797657316 L 134.578125 224.97325122371691 L 136.8984375 225.27284019773947 L 139.21875 225.50680200828498 L 141.5390625 225.67494697191256 L 143.859375 225.77713876588143 L 146.1796875 225.81329453867377 L 148.5 225.78338497716635 M 148.5 225.78338497716635 L 150.8203125 225.6874343303959 L 153.140625 225.52552038989938 L 155.46093750000003 225.2977744266448 L 157.78125000000003 225.004381084604 L 160.1015625 224.64557823105326 L 162.421875 224.22165676372367 L 164.7421875 223.7329603749571 L 167.0625 223.17988527305917 L 169.3828125 222.56287986107537 L 171.703125 221.88244437325028 L 174.0234375 221.13913046946507 L 176.34375000000003 220.3335407879818 L 178.66406250000003 219.46632845685724 L 180.98437500000003 218.53819656442244 L 183.30468750000003 217.54989758925717 L 185.62500000000003 216.50223279012135 L 187.94531250000003 215.3960515563383 L 190.26562500000003 214.23225071915638 L 192.58593750000003 213.0117738246472 L 194.90625000000003 211.73561036873008 L 197.22656250000003 210.4047949949429 L 199.54687500000003 209.02040665560972 L 201.86718750000003 207.5835677370852 L 204.18750000000003 206.09544314978504 L 206.5078125 204.55723938374058 L 208.828125 202.97020353044235 L 211.1484375 201.3356222717667 L 213.46875 199.6548208368045 L 215.78906250000003 197.9291619274378 L 218.10937500000003 196.16004461353558 L 220.42968750000003 194.34890319866463 L 222.75000000000003 192.49720605723456 M 222.75000000000003 192.49720605723456 L 225.07031250000003 190.60645444402 L 227.39062500000003 188.67818127702554 L 229.71093750000003 186.71394989467956 L 232.03125000000003 184.7153527883649 L 234.35156250000003 182.68401031131395 L 236.67187500000003 180.62156936491493 L 238.99218750000003 178.52970206349423 L 241.3125 176.4101043786576 L 243.6328125 174.26449476428905 L 245.953125 172.09461276332257 L 248.2734375 169.90221759741576 L 250.59375 167.68908674066913 L 252.9140625 165.45701447854725 L 255.23437500000003 163.20781045317034 L 257.5546875 160.94329819615535 L 259.875 158.6653136501962 M 259.875 158.6653136501962 L 262.1953125 156.37570368058195 L 264.515625 154.07632457785934 L 266.8359375 151.76904055285397 L 269.15625 149.45572222527016 M 269.15625 149.45572222527016 L 271.4765625 147.13824510709472 L 273.796875 144.8184880820344 M 273.796875 144.8184880820344 L 274.2892324852139 144.3261335926189" stroke-opacity="0.8" stroke-linecap="round" stroke-linejoin="round" stroke-miterlimit="10" stroke-width="6.5"/><path fill="none" stroke="rgb(0,0,255)" paint-order="fill stroke markers" d=" M 18.289533407976055 144.32613196287414 L 18.5625 144.05316741287484 M 18.5625 144.05316741287484 L 20.8828125 141.73460348238672 L 23.203125 139.4244421293633 L 25.5234375 137.1301736452551 L 27.84375 134.85923679168332 L 30.1640625 132.61899468156503 L 32.484375 130.41671090551588 L 34.8046875 128.2595259809364 L 37.125 126.15443420014154 M 37.125 126.15443420014154 L 39.4453125 124.10826095259927 L 41.765625 122.1276405948069 L 44.0859375 120.2189949395583 L 46.40625 118.38851243434642 L 48.7265625 116.64212809641204 L 51.046875 114.98550426949515 L 53.3671875 113.42401226468243 L 55.68750000000001 111.96271494487664 L 58.0078125 110.60635030935515 L 60.328125 109.35931613164138 L 62.6484375 108.22565570049854 L 64.96875 107.2090447102776 L 67.2890625 106.31277934312554 L 69.609375 105.53976558169515 L 71.9296875 104.89250978700784 L 74.25 104.37311057201929 M 74.25 104.37311057201929 L 76.5703125 103.9832519972365 L 78.890625 103.7241981104481 L 81.2109375 103.59678884827187 L 83.53125 103.6014373128082 L 85.8515625 103.73812843222927 L 88.171875 104.00641900964678 L 90.49218750000001 104.4054391600998 L 92.8125 104.93389513100364 L 95.1328125 105.59007349691483 L 97.453125 106.3718467150114 L 99.7734375 107.27668002327593 L 102.09375 108.30163965901514 L 104.4140625 109.4434023710688 L 106.734375 110.69826619486662 L 109.05468750000001 112.06216245539648 L 111.37500000000001 113.53066895916693 L 113.69531250000001 115.09902433239088 L 116.015625 116.76214345890185 L 118.3359375 118.51463396774786 L 120.65625 120.3508137170048 L 122.9765625 122.26472921712116 L 125.296875 124.25017493405983 L 127.6171875 126.30071340964948 L 129.9375 128.40969613390942 L 132.2578125 130.57028510167254 L 134.578125 132.77547498361324 L 136.8984375 135.01811583979423 L 139.21875 137.29093630208814 L 141.5390625 139.58656715030824 L 143.859375 141.89756520560752 L 146.1796875 144.2164374636757 L 148.5 146.53566538948635 M 148.5 146.53566538948635 L 150.8203125 148.847729294823 L 153.140625 151.14513271954422 L 155.46093750000003 153.42042673753585 L 157.78125000000003 155.6662341085423 L 160.1015625 157.87527319756933 L 162.421875 160.04038158430347 L 164.7421875 162.15453928599877 L 167.0625 164.2108915185349 L 169.3828125 166.2027709218479 L 171.703125 168.1237191776711 L 174.0234375 169.9675079494952 L 176.34375000000003 171.72815907685276 L 178.66406250000003 173.39996395845088 L 180.98437500000003 174.97750206130596 L 183.30468750000003 176.45565849586745 L 185.62500000000003 177.8296406001467 L 187.94531250000003 179.09499347907962 L 190.26562500000003 180.2476144487396 L 192.58593750000003 181.28376633856777 L 194.90625000000003 182.20008960849063 L 197.22656250000003 182.99361324163715 L 199.54687500000003 183.66176437733793 L 201.86718750000003 184.20237665317296 L 204.18750000000003 184.61369722902032 L 206.5078125 184.89439247033164 L 208.828125 185.0435522722073 L 211.1484375 185.0606930102515 L 213.46875 184.94575910863892 L 215.78906250000003 184.69912322030984 L 218.10937500000003 184.32158501870845 L 220.42968750000003 183.8143686049824 L 222.75000000000003 183.17911853905062 M 222.75000000000003 183.17911853905062 L 225.07031250000003 182.41789450740708 L 227.39062500000003 181.53316464495012 L 229.71093750000003 180.5277975324895 L 232.03125000000003 179.4050528958782 L 234.35156250000003 178.1685710369254 L 236.67187500000003 176.82236103035848 L 238.99218750000003 175.37078772510444 L 241.3125 173.8185575920355 L 243.6328125 172.17070346406592 L 245.953125 170.43256821807762 L 248.2734375 168.6097874515823 L 250.59375 166.70827121028896 L 252.9140625 164.73418482582105 L 255.23437500000003 162.69392892571435 L 257.5546875 160.59411868050887 L 259.875 158.4415623552234 M 259.875 158.4415623552234 L 262.1953125 156.24323923475458 L 264.515625 154.00627699477454 L 266.8359375 151.73792859149748 L 269.15625 149.4455487452461 M 269.15625 149.4455487452461 L 271.4765625 147.13657009406595 L 273.796875 144.81847909470497 M 273.796875 144.81847909470497 L 274.2892324852139 144.3261335926189" stroke-opacity="0.8" stroke-linecap="round" stroke-linejoin="round" stroke-miterlimit="10" stroke-width="6.5"/><path fill="none" stroke="rgb(0,0,255)" paint-order="fill stroke markers" d=" M 18.289533407976055 144.32613359261885 L 18.5625 144.59909814261815 M 18.5625 144.59909814261815 L 20.8828125 146.91766207310627 L 23.203125 149.22782342612967 L 25.5234375 151.5220919102379 L 27.84375 153.79302876380967 L 30.1640625 156.03327087392796 L 32.484375 158.2355546499771 L 34.8046875 160.3927395745566 L 37.125 162.49783135535145 M 37.125 162.49783135535145 L 39.4453125 164.54400460289372 L 41.765625 166.52462496068608 L 44.0859375 168.4332706159347 L 46.40625 170.26375312114655 L 48.7265625 172.01013745908097 L 51.046875 173.66676128599784 L 53.3671875 175.22825329081056 L 55.68750000000001 176.68955061061635 L 58.0078125 178.04591524613784 L 60.328125 179.2929494238516 L 62.6484375 180.42660985499447 L 64.96875 181.4432208452154 L 67.2890625 182.33948621236743 L 69.609375 183.11249997379784 L 71.9296875 183.75975576848515 L 74.25 184.2791549834737 M 74.25 184.2791549834737 L 76.5703125 184.6690135582565 L 78.890625 184.9280674450449 L 81.2109375 185.05547670722112 L 83.53125 185.0508282426848 L 85.8515625 184.9141371232637 L 88.171875 184.6458465458462 L 90.49218750000001 184.24682639539319 L 92.8125 183.71837042448936 L 95.1328125 183.06219205857815 L 97.453125 182.2804188404816 L 99.7734375 181.37558553221706 L 102.09375 180.35062589647785 L 104.4140625 179.2088631844242 L 106.734375 177.95399936062637 L 109.05468750000001 176.5901031000965 L 111.37500000000001 175.12159659632607 L 113.69531250000001 173.5532412231021 L 116.015625 171.89012209659114 L 118.3359375 170.13763158774512 L 120.65625 168.3014518384882 L 122.9765625 166.38753633837183 L 125.296875 164.40209062143316 L 127.6171875 162.35155214584353 L 129.9375 160.24256942158357 L 132.2578125 158.08198045382045 L 134.578125 155.87679057187975 L 136.8984375 153.63414971569875 L 139.21875 151.36132925340485 L 141.5390625 149.06569840518475 L 143.859375 146.75470034988547 L 146.1796875 144.43582809181729 L 148.5 142.11660016600663 M 148.5 142.11660016600663 L 150.8203125 139.80453626066998 L 153.140625 137.50713283594877 L 155.46093750000003 135.23183881795714 L 157.78125000000003 132.98603144695068 L 160.1015625 130.77699235792366 L 162.421875 128.6118839711895 L 164.7421875 126.49772626949422 L 167.0625 124.44137403695808 L 169.3828125 122.44949463364509 L 171.703125 120.52854637782188 L 174.0234375 118.68475760599777 L 176.34375000000003 116.92410647864024 L 178.66406250000003 115.25230159704212 L 180.98437500000003 113.67476349418703 L 183.30468750000003 112.19660705962555 L 185.62500000000003 110.8226249553463 L 187.94531250000003 109.55727207641337 L 190.26562500000003 108.40465110675339 L 192.58593750000003 107.36849921692522 L 194.90625000000003 106.45217594700236 L 197.22656250000003 105.65865231385584 L 199.54687500000003 104.99050117815506 L 201.86718750000003 104.44988890232001 L 204.18750000000003 104.03856832647267 L 206.5078125 103.75787308516135 L 208.828125 103.60871328328568 L 211.1484375 103.59157254524149 L 213.46875 103.70650644685406 L 215.78906250000003 103.95314233518314 L 218.10937500000003 104.33068053678456 L 220.42968750000003 104.83789695051058 L 222.75000000000003 105.47314701644237 M 222.75000000000003 105.47314701644237 L 225.07031250000003 106.23437104808589 L 227.39062500000003 107.11910091054287 L 229.71093750000003 108.12446802300349 L 232.03125000000003 109.24721265961476 L 234.35156250000003 110.48369451856759 L 236.67187500000003 111.8299045251345 L 238.99218750000003 113.28147783038855 L 241.3125 114.8337079634575 L 243.6328125 116.48156209142708 L 245.953125 118.21969733741538 L 248.2734375 120.0424781039107 L 250.59375 121.94399434520403 L 252.9140625 123.91808072967193 L 255.23437500000003 125.95833662977866 L 257.5546875 128.05814687498412 L 259.875 130.2107032002696 M 259.875 130.2107032002696 L 262.1953125 132.4090263207384 L 264.515625 134.64598856071845 L 266.8359375 136.9143369639955 L 269.15625 139.2067168102469 M 269.15625 139.2067168102469 L 271.4765625 141.51569546142704 L 273.796875 143.83378646078802 M 273.796875 143.83378646078802 L 274.2892324852139 144.3261319628741" stroke-opacity="0.8" stroke-linecap="round" stroke-linejoin="round" stroke-miterlimit="10" stroke-width="6.5"/></g></g></svg>